<svg width="1410" height="753" viewBox="0 0 1410 753" fill="none" xmlns="http://www.w3.org/2000/svg">
    <rect width="297" height="168" transform="translate(360 138)" fill="#97ADE6" fill-opacity="0.89"/>
    <path d="M414.265 234.78V256.48H407.825V202.93H414.265V209.58C415.619 207.34 416.879 205.753 418.045 204.82C419.165 203.98 420.542 203.233 422.175 202.58C423.529 202.16 425.069 201.903 426.795 201.81C429.735 201.81 432.465 202.65 434.985 204.33C437.319 205.823 439.185 208.203 440.585 211.47C441.892 214.457 442.592 218.003 442.685 222.11C442.685 227.943 441.262 232.82 438.415 236.74C435.662 240.613 431.695 242.55 426.515 242.55C424.835 242.55 423.295 242.317 421.895 241.85C420.542 241.477 419.235 240.8 417.975 239.82C416.855 238.793 415.619 237.113 414.265 234.78ZM415.595 214.27C414.802 216.557 414.359 219.217 414.265 222.25C414.265 226.59 415.199 230.183 417.065 233.03C418.979 235.783 421.639 237.16 425.045 237.16C428.219 237.16 430.809 235.947 432.815 233.52C434.915 231.14 435.965 227.407 435.965 222.32C435.965 216.533 434.869 212.543 432.675 210.35C430.575 208.157 428.079 207.013 425.185 206.92C423.272 206.92 421.359 207.55 419.445 208.81C417.812 210.023 416.529 211.843 415.595 214.27ZM454.413 222.39V241.5H447.973V202.93H454.413V209.72C455.347 207.853 456.467 206.337 457.773 205.17C458.847 204.283 460.2 203.467 461.833 202.72C463.187 202.207 464.633 201.903 466.173 201.81C467.48 201.81 468.623 202.02 469.603 202.44V209.09C468.203 208.437 466.593 208.063 464.773 207.97C462.347 207.97 459.99 209.043 457.703 211.19C455.51 213.29 454.413 217.023 454.413 222.39ZM501.439 237.44C497.892 240.847 493.599 242.55 488.559 242.55C483.519 242.55 479.225 240.847 475.679 237.44C472.179 234.08 470.382 228.993 470.289 222.18C470.289 215.553 472.085 210.49 475.679 206.99C479.272 203.583 483.565 201.857 488.559 201.81C493.552 201.81 497.845 203.537 501.439 206.99C504.985 210.443 506.782 215.507 506.829 222.18C506.829 228.9 505.032 233.987 501.439 237.44ZM480.229 233.1C482.235 235.807 485.012 237.16 488.559 237.16C492.012 237.16 494.789 235.807 496.889 233.1C498.942 230.44 500.015 226.8 500.109 222.18C500.109 217.7 499.035 214.107 496.889 211.4C494.882 208.6 492.105 207.2 488.559 207.2C485.105 207.2 482.329 208.6 480.229 211.4C478.175 214.013 477.102 217.607 477.009 222.18C477.009 226.613 478.082 230.253 480.229 233.1ZM529.89 237.16C531.29 237.16 533.203 236.787 535.63 236.04V241.43C532.643 242.177 530.263 242.55 528.49 242.55C526.157 242.55 523.987 242.083 521.98 241.15C520.16 240.217 518.713 238.793 517.64 236.88C516.613 235.107 516.1 232.19 516.1 228.13V208.25H509.38V202.93H516.1V193.83H522.54V202.93H533.81V208.25H522.54V226.31C522.54 229.81 522.797 232.167 523.31 233.38C523.777 234.593 524.617 235.55 525.83 236.25C526.903 236.857 528.257 237.16 529.89 237.16ZM569.609 237.44C566.062 240.847 561.769 242.55 556.729 242.55C551.689 242.55 547.395 240.847 543.849 237.44C540.349 234.08 538.552 228.993 538.459 222.18C538.459 215.553 540.255 210.49 543.849 206.99C547.442 203.583 551.735 201.857 556.729 201.81C561.722 201.81 566.015 203.537 569.609 206.99C573.155 210.443 574.952 215.507 574.999 222.18C574.999 228.9 573.202 233.987 569.609 237.44ZM548.399 233.1C550.405 235.807 553.182 237.16 556.729 237.16C560.182 237.16 562.959 235.807 565.059 233.1C567.112 230.44 568.185 226.8 568.279 222.18C568.279 217.7 567.205 214.107 565.059 211.4C563.052 208.6 560.275 207.2 556.729 207.2C553.275 207.2 550.499 208.6 548.399 211.4C546.345 214.013 545.272 217.607 545.179 222.18C545.179 226.613 546.252 230.253 548.399 233.1ZM604.36 231.98V231.63H610.8V231.98C610.8 233.753 610.147 235.457 608.84 237.09C607.673 238.817 605.97 240.193 603.73 241.22C601.583 242.107 599.04 242.55 596.1 242.55C590.453 242.55 586.067 240.753 582.94 237.16C579.907 233.567 578.367 228.573 578.32 222.18C578.32 215.973 579.86 211.003 582.94 207.27C586.113 203.677 590.5 201.857 596.1 201.81C599.087 201.81 601.63 202.3 603.73 203.28C605.923 204.213 607.627 205.497 608.84 207.13C610.147 208.623 610.8 210.42 610.8 212.52V212.87H604.36V212.52C604.453 211.12 603.823 209.883 602.47 208.81C601.257 207.83 599.25 207.293 596.45 207.2C593.277 207.2 590.593 208.39 588.4 210.77C586.207 213.15 585.087 216.953 585.04 222.18C585.04 227.453 586.16 231.28 588.4 233.66C590.5 235.993 593.183 237.16 596.45 237.16C599.157 237.16 601.163 236.647 602.47 235.62C603.683 234.547 604.313 233.333 604.36 231.98Z"
          fill="black"/>
    <rect width="421" height="168" transform="translate(800 566)" fill="#E6F9B0" fill-opacity="0.89"/>
    <path d="M887.309 665.93V661.38C885.862 664.18 884.159 666.21 882.199 667.47C880.006 668.823 877.509 669.5 874.709 669.5C870.136 669.5 866.332 667.703 863.299 664.11C860.312 660.47 858.819 655.733 858.819 649.9C858.819 646.167 859.519 642.643 860.919 639.33C862.132 636.203 863.999 633.847 866.519 632.26C868.899 630.72 871.722 629.903 874.989 629.81C877.416 629.81 879.586 630.323 881.499 631.35C883.366 632.237 885.302 634.15 887.309 637.09V630.93H893.679V662.43C893.679 670.363 892.839 675.59 891.159 678.11C889.619 680.583 887.519 682.473 884.859 683.78C882.432 684.9 879.469 685.507 875.969 685.6C872.842 685.6 869.996 685.133 867.429 684.2C864.956 683.267 863.019 681.96 861.619 680.28C860.359 678.6 859.729 676.897 859.729 675.17V674.61H866.029V675.17C866.029 676.85 866.986 678.18 868.899 679.16C870.579 680.233 872.912 680.77 875.899 680.77C878.279 680.77 880.239 680.35 881.779 679.51C883.412 678.763 884.719 677.48 885.699 675.66C886.679 673.933 887.216 670.69 887.309 665.93ZM884.229 660.19C886.236 657.203 887.262 653.493 887.309 649.06C887.309 645.047 886.236 641.71 884.089 639.05C881.989 636.483 879.446 635.2 876.459 635.2C873.332 635.2 870.742 636.507 868.689 639.12C866.589 641.733 865.539 645.35 865.539 649.97C865.539 652.91 865.982 655.477 866.869 657.67C867.616 659.863 868.876 661.543 870.649 662.71C872.422 663.83 874.312 664.39 876.319 664.39C879.586 664.39 882.222 662.99 884.229 660.19ZM926.044 659.98V659.63H932.484V659.98C932.484 661.707 931.807 663.41 930.454 665.09C929.147 666.863 927.35 668.24 925.064 669.22C922.777 670.107 920.21 670.55 917.364 670.55C911.53 670.55 907.004 668.66 903.784 664.88C900.564 661.007 898.954 656.2 898.954 650.46C898.954 644.673 900.657 639.75 904.064 635.69C907.517 631.817 911.857 629.857 917.084 629.81C919.977 629.81 922.637 630.463 925.064 631.77C927.397 632.983 929.264 634.943 930.664 637.65C932.017 640.31 932.694 644.043 932.694 648.85V651.02H905.324C905.324 655.033 906.444 658.44 908.684 661.24C910.877 663.853 913.957 665.16 917.924 665.16C920.817 665.16 922.87 664.647 924.084 663.62C925.39 662.5 926.044 661.287 926.044 659.98ZM909.804 638.14C907.89 639.913 906.537 642.597 905.744 646.19H926.604V645.49C926.604 643.623 926.16 641.873 925.274 640.24C924.387 638.42 923.22 637.16 921.774 636.46C920.187 635.62 918.414 635.2 916.454 635.2C914.074 635.2 911.857 636.18 909.804 638.14ZM945.096 650.53V669.5H938.656V630.93H945.096V637.58C946.449 635.527 947.733 633.987 948.946 632.96C950.159 632.027 951.513 631.257 953.006 630.65C954.173 630.183 955.713 629.903 957.626 629.81C960.053 629.81 962.223 630.323 964.136 631.35C966.049 632.283 967.543 633.73 968.616 635.69C969.596 637.51 970.133 640.59 970.226 644.93V669.5H963.786V647.73C963.786 644.23 963.553 641.78 963.086 640.38C962.666 638.933 961.779 637.813 960.426 637.02C959.119 636.18 957.649 635.76 956.016 635.76C954.289 635.76 952.493 636.297 950.626 637.37C948.899 638.583 947.546 640.147 946.566 642.06C945.586 644.02 945.096 646.843 945.096 650.53ZM1002.01 659.98V659.63H1008.45V659.98C1008.45 661.707 1007.77 663.41 1006.42 665.09C1005.11 666.863 1003.31 668.24 1001.03 669.22C998.74 670.107 996.173 670.55 993.327 670.55C987.493 670.55 982.967 668.66 979.747 664.88C976.527 661.007 974.917 656.2 974.917 650.46C974.917 644.673 976.62 639.75 980.027 635.69C983.48 631.817 987.82 629.857 993.047 629.81C995.94 629.81 998.6 630.463 1001.03 631.77C1003.36 632.983 1005.23 634.943 1006.63 637.65C1007.98 640.31 1008.66 644.043 1008.66 648.85V651.02H981.287C981.287 655.033 982.407 658.44 984.647 661.24C986.84 663.853 989.92 665.16 993.887 665.16C996.78 665.16 998.833 664.647 1000.05 663.62C1001.35 662.5 1002.01 661.287 1002.01 659.98ZM985.767 638.14C983.853 639.913 982.5 642.597 981.707 646.19H1002.57V645.49C1002.57 643.623 1002.12 641.873 1001.24 640.24C1000.35 638.42 999.183 637.16 997.737 636.46C996.15 635.62 994.377 635.2 992.417 635.2C990.037 635.2 987.82 636.18 985.767 638.14ZM1021.06 650.39V669.5H1014.62V630.93H1021.06V637.72C1021.99 635.853 1023.11 634.337 1024.42 633.17C1025.49 632.283 1026.85 631.467 1028.48 630.72C1029.83 630.207 1031.28 629.903 1032.82 629.81C1034.13 629.81 1035.27 630.02 1036.25 630.44V637.09C1034.85 636.437 1033.24 636.063 1031.42 635.97C1028.99 635.97 1026.64 637.043 1024.35 639.19C1022.16 641.29 1021.06 645.023 1021.06 650.39ZM1069.41 669.5H1062.62C1062.06 667.633 1061.74 665.837 1061.64 664.11C1058.89 666.863 1056.49 668.66 1054.43 669.5C1052.47 670.2 1050.56 670.55 1048.69 670.55C1045.66 670.55 1043.05 669.64 1040.85 667.82C1038.71 665.907 1037.61 663.317 1037.56 660.05C1037.56 656.27 1039.1 653.377 1042.18 651.37C1045.22 649.41 1050.54 647.66 1058.14 646.12L1061.64 645.49V641.15C1061.64 638.77 1060.85 637.09 1059.26 636.11C1057.63 635.177 1055.72 634.71 1053.52 634.71C1050.82 634.71 1048.74 635.293 1047.29 636.46C1045.89 637.533 1045.15 638.91 1045.05 640.59V641.15H1038.12V640.59C1038.12 638.77 1038.82 637.02 1040.22 635.34C1041.58 633.567 1043.49 632.19 1045.96 631.21C1048.39 630.277 1051 629.81 1053.8 629.81C1056.7 629.81 1059.24 630.277 1061.43 631.21C1063.81 632.097 1065.49 633.263 1066.47 634.71C1067.45 636.063 1067.99 638.84 1068.08 643.04V658.02C1068.08 660.26 1068.11 661.987 1068.15 663.2C1068.25 665.02 1068.67 667.12 1069.41 669.5ZM1061.64 653.89V650.04L1059.75 650.46C1053.13 652.187 1048.95 653.703 1047.22 655.01C1045.45 656.41 1044.54 658.137 1044.49 660.19C1044.49 661.123 1044.77 662.057 1045.33 662.99C1045.75 663.737 1046.55 664.413 1047.71 665.02C1048.79 665.487 1049.81 665.72 1050.79 665.72C1052.57 665.72 1054.34 665.207 1056.11 664.18C1057.89 663.06 1059.26 661.66 1060.24 659.98C1061.18 658.207 1061.64 656.177 1061.64 653.89ZM1092.78 665.16C1094.18 665.16 1096.09 664.787 1098.52 664.04V669.43C1095.53 670.177 1093.15 670.55 1091.38 670.55C1089.04 670.55 1086.87 670.083 1084.87 669.15C1083.05 668.217 1081.6 666.793 1080.53 664.88C1079.5 663.107 1078.99 660.19 1078.99 656.13V636.25H1072.27V630.93H1078.99V621.83H1085.43V630.93H1096.7V636.25H1085.43V654.31C1085.43 657.81 1085.68 660.167 1086.2 661.38C1086.66 662.593 1087.5 663.55 1088.72 664.25C1089.79 664.857 1091.14 665.16 1092.78 665.16ZM1132.49 665.44C1128.95 668.847 1124.65 670.55 1119.61 670.55C1114.57 670.55 1110.28 668.847 1106.73 665.44C1103.23 662.08 1101.44 656.993 1101.34 650.18C1101.34 643.553 1103.14 638.49 1106.73 634.99C1110.33 631.583 1114.62 629.857 1119.61 629.81C1124.61 629.81 1128.9 631.537 1132.49 634.99C1136.04 638.443 1137.84 643.507 1137.88 650.18C1137.88 656.9 1136.09 661.987 1132.49 665.44ZM1111.28 661.1C1113.29 663.807 1116.07 665.16 1119.61 665.16C1123.07 665.16 1125.84 663.807 1127.94 661.1C1130 658.44 1131.07 654.8 1131.16 650.18C1131.16 645.7 1130.09 642.107 1127.94 639.4C1125.94 636.6 1123.16 635.2 1119.61 635.2C1116.16 635.2 1113.38 636.6 1111.28 639.4C1109.23 642.013 1108.16 645.607 1108.06 650.18C1108.06 654.613 1109.14 658.253 1111.28 661.1ZM1149.61 650.39V669.5H1143.17V630.93H1149.61V637.72C1150.54 635.853 1151.66 634.337 1152.97 633.17C1154.04 632.283 1155.39 631.467 1157.03 630.72C1158.38 630.207 1159.83 629.903 1161.37 629.81C1162.67 629.81 1163.82 630.02 1164.8 630.44V637.09C1163.4 636.437 1161.79 636.063 1159.97 635.97C1157.54 635.97 1155.18 637.043 1152.9 639.19C1150.7 641.29 1149.61 645.023 1149.61 650.39Z"
          fill="black"/>
    <rect width="377" height="168" transform="translate(0 572)" fill="#B0F9CD" fill-opacity="0.89"/>
    <path d="M59.1821 675.5V636.93H65.6221V675.5C65.6221 679.467 65.1554 682.36 64.2221 684.18C63.3821 686 61.8888 687.54 59.7421 688.8C57.7821 689.827 55.5188 690.387 52.9521 690.48C51.4588 690.48 49.5921 690.293 47.3521 689.92V684.74L48.8221 684.88C49.9888 685.02 50.9921 685.09 51.8321 685.09C53.9321 685.09 55.7054 684.553 57.1521 683.48C58.5054 682.407 59.1821 679.747 59.1821 675.5ZM65.6221 628.11H59.1821V621.88H65.6221V628.11ZM103.593 675.5H96.8029C96.2429 673.633 95.9162 671.837 95.8229 670.11C93.0696 672.863 90.6662 674.66 88.6129 675.5C86.6529 676.2 84.7396 676.55 82.8729 676.55C79.8396 676.55 77.2262 675.64 75.0329 673.82C72.8862 671.907 71.7896 669.317 71.7429 666.05C71.7429 662.27 73.2829 659.377 76.3629 657.37C79.3962 655.41 84.7162 653.66 92.3229 652.12L95.8229 651.49V647.15C95.8229 644.77 95.0296 643.09 93.4429 642.11C91.8096 641.177 89.8962 640.71 87.7029 640.71C84.9962 640.71 82.9196 641.293 81.4729 642.46C80.0729 643.533 79.3262 644.91 79.2329 646.59V647.15H72.3029V646.59C72.3029 644.77 73.0029 643.02 74.4029 641.34C75.7562 639.567 77.6696 638.19 80.1429 637.21C82.5696 636.277 85.1829 635.81 87.9829 635.81C90.8762 635.81 93.4196 636.277 95.6129 637.21C97.9929 638.097 99.6729 639.263 100.653 640.71C101.633 642.063 102.17 644.84 102.263 649.04V664.02C102.263 666.26 102.286 667.987 102.333 669.2C102.426 671.02 102.846 673.12 103.593 675.5ZM95.8229 659.89V656.04L93.9329 656.46C87.3062 658.187 83.1296 659.703 81.4029 661.01C79.6296 662.41 78.7196 664.137 78.6729 666.19C78.6729 667.123 78.9529 668.057 79.5129 668.99C79.9329 669.737 80.7262 670.413 81.8929 671.02C82.9662 671.487 83.9929 671.72 84.9729 671.72C86.7462 671.72 88.5196 671.207 90.2929 670.18C92.0662 669.06 93.4429 667.66 94.4229 665.98C95.3562 664.207 95.8229 662.177 95.8229 659.89ZM126.954 675.5H120.514L104.834 636.93H111.764L124.154 667.17L136.754 636.93H143.194L126.954 675.5ZM176.616 675.5H169.826C169.266 673.633 168.94 671.837 168.846 670.11C166.093 672.863 163.69 674.66 161.636 675.5C159.676 676.2 157.763 676.55 155.896 676.55C152.863 676.55 150.25 675.64 148.056 673.82C145.91 671.907 144.813 669.317 144.766 666.05C144.766 662.27 146.306 659.377 149.386 657.37C152.42 655.41 157.74 653.66 165.346 652.12L168.846 651.49V647.15C168.846 644.77 168.053 643.09 166.466 642.11C164.833 641.177 162.92 640.71 160.726 640.71C158.02 640.71 155.943 641.293 154.496 642.46C153.096 643.533 152.35 644.91 152.256 646.59V647.15H145.326V646.59C145.326 644.77 146.026 643.02 147.426 641.34C148.78 639.567 150.693 638.19 153.166 637.21C155.593 636.277 158.206 635.81 161.006 635.81C163.9 635.81 166.443 636.277 168.636 637.21C171.016 638.097 172.696 639.263 173.676 640.71C174.656 642.063 175.193 644.84 175.286 649.04V664.02C175.286 666.26 175.31 667.987 175.356 669.2C175.45 671.02 175.87 673.12 176.616 675.5ZM168.846 659.89V656.04L166.956 656.46C160.33 658.187 156.153 659.703 154.426 661.01C152.653 662.41 151.743 664.137 151.696 666.19C151.696 667.123 151.976 668.057 152.536 668.99C152.956 669.737 153.75 670.413 154.916 671.02C155.99 671.487 157.016 671.72 157.996 671.72C159.77 671.72 161.543 671.207 163.316 670.18C165.09 669.06 166.466 667.66 167.446 665.98C168.38 664.207 168.846 662.177 168.846 659.89ZM188.078 668.78V690.48H181.638V636.93H188.078V643.58C189.431 641.34 190.691 639.753 191.858 638.82C192.978 637.98 194.355 637.233 195.988 636.58C197.341 636.16 198.881 635.903 200.608 635.81C203.548 635.81 206.278 636.65 208.798 638.33C211.131 639.823 212.998 642.203 214.398 645.47C215.705 648.457 216.405 652.003 216.498 656.11C216.498 661.943 215.075 666.82 212.228 670.74C209.475 674.613 205.508 676.55 200.328 676.55C198.648 676.55 197.108 676.317 195.708 675.85C194.355 675.477 193.048 674.8 191.788 673.82C190.668 672.793 189.431 671.113 188.078 668.78ZM189.408 648.27C188.615 650.557 188.171 653.217 188.078 656.25C188.078 660.59 189.011 664.183 190.878 667.03C192.791 669.783 195.451 671.16 198.858 671.16C202.031 671.16 204.621 669.947 206.628 667.52C208.728 665.14 209.778 661.407 209.778 656.32C209.778 650.533 208.681 646.543 206.488 644.35C204.388 642.157 201.891 641.013 198.998 640.92C197.085 640.92 195.171 641.55 193.258 642.81C191.625 644.023 190.341 645.843 189.408 648.27ZM250.976 671.44C247.429 674.847 243.136 676.55 238.096 676.55C233.056 676.55 228.762 674.847 225.216 671.44C221.716 668.08 219.919 662.993 219.826 656.18C219.826 649.553 221.622 644.49 225.216 640.99C228.809 637.583 233.102 635.857 238.096 635.81C243.089 635.81 247.382 637.537 250.976 640.99C254.522 644.443 256.319 649.507 256.366 656.18C256.366 662.9 254.569 667.987 250.976 671.44ZM229.766 667.1C231.772 669.807 234.549 671.16 238.096 671.16C241.549 671.16 244.326 669.807 246.426 667.1C248.479 664.44 249.552 660.8 249.646 656.18C249.646 651.7 248.572 648.107 246.426 645.4C244.419 642.6 241.642 641.2 238.096 641.2C234.642 641.2 231.866 642.6 229.766 645.4C227.712 648.013 226.639 651.607 226.546 656.18C226.546 660.613 227.619 664.253 229.766 667.1ZM286.777 665.98V665.63H293.217V665.98C293.217 667.707 292.54 669.41 291.187 671.09C289.88 672.863 288.084 674.24 285.797 675.22C283.51 676.107 280.944 676.55 278.097 676.55C272.264 676.55 267.737 674.66 264.517 670.88C261.297 667.007 259.687 662.2 259.687 656.46C259.687 650.673 261.39 645.75 264.797 641.69C268.25 637.817 272.59 635.857 277.817 635.81C280.71 635.81 283.37 636.463 285.797 637.77C288.13 638.983 289.997 640.943 291.397 643.65C292.75 646.31 293.427 650.043 293.427 654.85V657.02H266.057C266.057 661.033 267.177 664.44 269.417 667.24C271.61 669.853 274.69 671.16 278.657 671.16C281.55 671.16 283.604 670.647 284.817 669.62C286.124 668.5 286.777 667.287 286.777 665.98ZM270.537 644.14C268.624 645.913 267.27 648.597 266.477 652.19H287.337V651.49C287.337 649.623 286.894 647.873 286.007 646.24C285.12 644.42 283.954 643.16 282.507 642.46C280.92 641.62 279.147 641.2 277.187 641.2C274.807 641.2 272.59 642.18 270.537 644.14ZM317.169 671.16C318.569 671.16 320.483 670.787 322.909 670.04V675.43C319.923 676.177 317.543 676.55 315.769 676.55C313.436 676.55 311.266 676.083 309.259 675.15C307.439 674.217 305.993 672.793 304.919 670.88C303.893 669.107 303.379 666.19 303.379 662.13V642.25H296.659V636.93H303.379V627.83H309.819V636.93H321.089V642.25H309.819V660.31C309.819 663.81 310.076 666.167 310.589 667.38C311.056 668.593 311.896 669.55 313.109 670.25C314.183 670.857 315.536 671.16 317.169 671.16Z"
          fill="black"/>
    <path d="M1083.96 201.195L1086.46 201.195L1086.46 198.695L1083.96 198.695L1083.96 201.195ZM1082.19 555.677C1083.17 556.653 1084.75 556.653 1085.73 555.677L1101.64 539.767C1102.61 538.79 1102.61 537.207 1101.64 536.231C1100.66 535.255 1099.08 535.255 1098.1 536.231L1083.96 550.373L1069.82 536.231C1068.84 535.255 1067.26 535.255 1066.28 536.231C1065.3 537.207 1065.3 538.79 1066.28 539.767L1082.19 555.677ZM677.441 203.695L1083.96 203.695L1083.96 198.695L677.441 198.695L677.441 203.695ZM1081.46 201.195L1081.46 553.909L1086.46 553.909L1086.46 201.195L1081.46 201.195Z"
          fill="black"/>
    <path d="M677.944 257.983C676.566 258.068 675.518 259.254 675.602 260.632L676.981 283.089C677.066 284.468 678.251 285.516 679.63 285.432C681.008 285.347 682.056 284.161 681.972 282.783L680.746 262.821L700.709 261.595C702.087 261.51 703.135 260.325 703.051 258.947C702.966 257.568 701.78 256.52 700.402 256.604L677.944 257.983ZM1011.97 552.391L679.754 258.606L676.442 262.351L1008.66 556.137L1011.97 552.391Z"
          fill="black"/>
    <path d="M1232.83 236V235.75H1237.48V236C1237.48 237.533 1236.96 239.067 1235.93 240.6C1234.93 242.1 1233.51 243.25 1231.68 244.05C1229.91 244.783 1227.81 245.15 1225.38 245.15C1220.48 245.15 1216.48 243.45 1213.38 240.05C1210.31 236.683 1208.76 231.617 1208.73 224.85C1208.73 218.217 1210.28 213.15 1213.38 209.65C1216.44 206.25 1220.44 204.55 1225.38 204.55C1227.68 204.55 1229.78 204.917 1231.68 205.65C1233.44 206.35 1234.86 207.517 1235.93 209.15C1236.89 210.683 1237.41 212.2 1237.48 213.7V213.95H1232.83V213.7C1232.83 212.733 1232.54 211.833 1231.98 211C1231.41 210.133 1230.58 209.5 1229.48 209.1C1228.34 208.633 1227.03 208.4 1225.53 208.4C1221.66 208.4 1218.74 209.95 1216.78 213.05C1214.88 216.15 1213.91 220.083 1213.88 224.85C1213.88 229.583 1214.86 233.55 1216.83 236.75C1218.73 239.783 1221.63 241.3 1225.53 241.3C1228.23 241.3 1230.11 240.767 1231.18 239.7C1232.28 238.6 1232.83 237.367 1232.83 236ZM1260.89 241.1C1258.35 243.533 1255.29 244.75 1251.69 244.75C1248.09 244.75 1245.02 243.533 1242.49 241.1C1239.99 238.7 1238.7 235.067 1238.64 230.2C1238.64 225.467 1239.92 221.85 1242.49 219.35C1245.05 216.917 1248.12 215.683 1251.69 215.65C1255.25 215.65 1258.32 216.883 1260.89 219.35C1263.42 221.817 1264.7 225.433 1264.74 230.2C1264.74 235 1263.45 238.633 1260.89 241.1ZM1245.74 238C1247.17 239.933 1249.15 240.9 1251.69 240.9C1254.15 240.9 1256.14 239.933 1257.64 238C1259.1 236.1 1259.87 233.5 1259.94 230.2C1259.94 227 1259.17 224.433 1257.64 222.5C1256.2 220.5 1254.22 219.5 1251.69 219.5C1249.22 219.5 1247.24 220.5 1245.74 222.5C1244.27 224.367 1243.5 226.933 1243.44 230.2C1243.44 233.367 1244.2 235.967 1245.74 238ZM1286.6 221.25V204.2H1291.15V244H1286.6V239.2C1285.54 241.067 1284.62 242.317 1283.85 242.95C1282.99 243.583 1281.97 244.05 1280.8 244.35C1279.67 244.617 1278.59 244.75 1277.55 244.75C1275.42 244.75 1273.52 244.183 1271.85 243.05C1270.15 241.983 1268.79 240.283 1267.75 237.95C1266.79 235.65 1266.29 233.1 1266.25 230.3C1266.25 226.167 1267.27 222.683 1269.3 219.85C1271.37 217.083 1274.2 215.683 1277.8 215.65C1278.9 215.65 1280 215.833 1281.1 216.2C1282.1 216.533 1283.04 217.033 1283.9 217.7C1284.57 218.267 1285.47 219.45 1286.6 221.25ZM1285.6 235.85C1286.24 234.083 1286.57 232.2 1286.6 230.2C1286.6 227.133 1285.92 224.583 1284.55 222.55C1283.25 220.583 1281.35 219.567 1278.85 219.5C1276.65 219.5 1274.8 220.4 1273.3 222.2C1271.8 224 1271.05 226.65 1271.05 230.15C1271.05 234.25 1271.79 237.117 1273.25 238.75C1274.65 240.317 1276.49 241.1 1278.75 241.1C1280.29 241.1 1281.65 240.667 1282.85 239.8C1284.12 238.833 1285.04 237.517 1285.6 235.85ZM1313.02 237.2V236.95H1317.62V237.2C1317.62 238.433 1317.14 239.65 1316.17 240.85C1315.24 242.117 1313.96 243.1 1312.32 243.8C1310.69 244.433 1308.86 244.75 1306.82 244.75C1302.66 244.75 1299.42 243.4 1297.12 240.7C1294.82 237.933 1293.67 234.5 1293.67 230.4C1293.67 226.267 1294.89 222.75 1297.32 219.85C1299.79 217.083 1302.89 215.683 1306.62 215.65C1308.69 215.65 1310.59 216.117 1312.32 217.05C1313.99 217.917 1315.32 219.317 1316.32 221.25C1317.29 223.15 1317.77 225.817 1317.77 229.25V230.8H1298.22C1298.22 233.667 1299.02 236.1 1300.62 238.1C1302.19 239.967 1304.39 240.9 1307.22 240.9C1309.29 240.9 1310.76 240.533 1311.62 239.8C1312.56 239 1313.02 238.133 1313.02 237.2ZM1301.42 221.6C1300.06 222.867 1299.09 224.783 1298.52 227.35H1313.42V226.85C1313.42 225.517 1313.11 224.267 1312.47 223.1C1311.84 221.8 1311.01 220.9 1309.97 220.4C1308.84 219.8 1307.57 219.5 1306.17 219.5C1304.47 219.5 1302.89 220.2 1301.42 221.6ZM1168.02 319.45V316.2C1166.99 318.2 1165.77 319.65 1164.37 320.55C1162.81 321.517 1161.02 322 1159.02 322C1155.76 322 1153.04 320.717 1150.87 318.15C1148.74 315.55 1147.67 312.167 1147.67 308C1147.67 305.333 1148.17 302.817 1149.17 300.45C1150.04 298.217 1151.37 296.533 1153.17 295.4C1154.87 294.3 1156.89 293.717 1159.22 293.65C1160.96 293.65 1162.51 294.017 1163.87 294.75C1165.21 295.383 1166.59 296.75 1168.02 298.85V294.45H1172.57V316.95C1172.57 322.617 1171.97 326.35 1170.77 328.15C1169.67 329.917 1168.17 331.267 1166.27 332.2C1164.54 333 1162.42 333.433 1159.92 333.5C1157.69 333.5 1155.66 333.167 1153.82 332.5C1152.06 331.833 1150.67 330.9 1149.67 329.7C1148.77 328.5 1148.32 327.283 1148.32 326.05V325.65H1152.82V326.05C1152.82 327.25 1153.51 328.2 1154.87 328.9C1156.07 329.667 1157.74 330.05 1159.87 330.05C1161.57 330.05 1162.97 329.75 1164.07 329.15C1165.24 328.617 1166.17 327.7 1166.87 326.4C1167.57 325.167 1167.96 322.85 1168.02 319.45ZM1165.82 315.35C1167.26 313.217 1167.99 310.567 1168.02 307.4C1168.02 304.533 1167.26 302.15 1165.72 300.25C1164.22 298.417 1162.41 297.5 1160.27 297.5C1158.04 297.5 1156.19 298.433 1154.72 300.3C1153.22 302.167 1152.47 304.75 1152.47 308.05C1152.47 310.15 1152.79 311.983 1153.42 313.55C1153.96 315.117 1154.86 316.317 1156.12 317.15C1157.39 317.95 1158.74 318.35 1160.17 318.35C1162.51 318.35 1164.39 317.35 1165.82 315.35ZM1194.83 315.2V314.95H1199.43V315.2C1199.43 316.433 1198.95 317.65 1197.98 318.85C1197.05 320.117 1195.77 321.1 1194.13 321.8C1192.5 322.433 1190.67 322.75 1188.63 322.75C1184.47 322.75 1181.23 321.4 1178.93 318.7C1176.63 315.933 1175.48 312.5 1175.48 308.4C1175.48 304.267 1176.7 300.75 1179.13 297.85C1181.6 295.083 1184.7 293.683 1188.43 293.65C1190.5 293.65 1192.4 294.117 1194.13 295.05C1195.8 295.917 1197.13 297.317 1198.13 299.25C1199.1 301.15 1199.58 303.817 1199.58 307.25V308.8H1180.03C1180.03 311.667 1180.83 314.1 1182.43 316.1C1184 317.967 1186.2 318.9 1189.03 318.9C1191.1 318.9 1192.57 318.533 1193.43 317.8C1194.37 317 1194.83 316.133 1194.83 315.2ZM1183.23 299.6C1181.87 300.867 1180.9 302.783 1180.33 305.35H1195.23V304.85C1195.23 303.517 1194.92 302.267 1194.28 301.1C1193.65 299.8 1192.82 298.9 1191.78 298.4C1190.65 297.8 1189.38 297.5 1187.98 297.5C1186.28 297.5 1184.7 298.2 1183.23 299.6ZM1207.58 308.45V322H1202.98V294.45H1207.58V299.2C1208.55 297.733 1209.47 296.633 1210.33 295.9C1211.2 295.233 1212.17 294.683 1213.23 294.25C1214.07 293.917 1215.17 293.717 1216.53 293.65C1218.27 293.65 1219.82 294.017 1221.18 294.75C1222.55 295.417 1223.62 296.45 1224.38 297.85C1225.08 299.15 1225.47 301.35 1225.53 304.45V322H1220.93V306.45C1220.93 303.95 1220.77 302.2 1220.43 301.2C1220.13 300.167 1219.5 299.367 1218.53 298.8C1217.6 298.2 1216.55 297.9 1215.38 297.9C1214.15 297.9 1212.87 298.283 1211.53 299.05C1210.3 299.917 1209.33 301.033 1208.63 302.4C1207.93 303.8 1207.58 305.817 1207.58 308.45ZM1247.38 315.2V314.95H1251.98V315.2C1251.98 316.433 1251.49 317.65 1250.53 318.85C1249.59 320.117 1248.31 321.1 1246.68 321.8C1245.04 322.433 1243.21 322.75 1241.18 322.75C1237.01 322.75 1233.78 321.4 1231.48 318.7C1229.18 315.933 1228.03 312.5 1228.03 308.4C1228.03 304.267 1229.24 300.75 1231.68 297.85C1234.14 295.083 1237.24 293.683 1240.98 293.65C1243.04 293.65 1244.94 294.117 1246.68 295.05C1248.34 295.917 1249.68 297.317 1250.68 299.25C1251.64 301.15 1252.13 303.817 1252.13 307.25V308.8H1232.58C1232.58 311.667 1233.38 314.1 1234.98 316.1C1236.54 317.967 1238.74 318.9 1241.58 318.9C1243.64 318.9 1245.11 318.533 1245.98 317.8C1246.91 317 1247.38 316.133 1247.38 315.2ZM1235.78 299.6C1234.41 300.867 1233.44 302.783 1232.88 305.35H1247.78V304.85C1247.78 303.517 1247.46 302.267 1246.83 301.1C1246.19 299.8 1245.36 298.9 1244.33 298.4C1243.19 297.8 1241.93 297.5 1240.53 297.5C1238.83 297.5 1237.24 298.2 1235.78 299.6ZM1260.13 308.35V322H1255.53V294.45H1260.13V299.3C1260.8 297.967 1261.6 296.883 1262.53 296.05C1263.3 295.417 1264.26 294.833 1265.43 294.3C1266.4 293.933 1267.43 293.717 1268.53 293.65C1269.46 293.65 1270.28 293.8 1270.98 294.1V298.85C1269.98 298.383 1268.83 298.117 1267.53 298.05C1265.8 298.05 1264.11 298.817 1262.48 300.35C1260.91 301.85 1260.13 304.517 1260.13 308.35ZM1293.81 322H1288.96C1288.56 320.667 1288.33 319.383 1288.26 318.15C1286.29 320.117 1284.58 321.4 1283.11 322C1281.71 322.5 1280.34 322.75 1279.01 322.75C1276.84 322.75 1274.98 322.1 1273.41 320.8C1271.88 319.433 1271.09 317.583 1271.06 315.25C1271.06 312.55 1272.16 310.483 1274.36 309.05C1276.53 307.65 1280.33 306.4 1285.76 305.3L1288.26 304.85V301.75C1288.26 300.05 1287.69 298.85 1286.56 298.15C1285.39 297.483 1284.03 297.15 1282.46 297.15C1280.53 297.15 1279.04 297.567 1278.01 298.4C1277.01 299.167 1276.48 300.15 1276.41 301.35V301.75H1271.46V301.35C1271.46 300.05 1271.96 298.8 1272.96 297.6C1273.93 296.333 1275.29 295.35 1277.06 294.65C1278.79 293.983 1280.66 293.65 1282.66 293.65C1284.73 293.65 1286.54 293.983 1288.11 294.65C1289.81 295.283 1291.01 296.117 1291.71 297.15C1292.41 298.117 1292.79 300.1 1292.86 303.1V313.8C1292.86 315.4 1292.88 316.633 1292.91 317.5C1292.98 318.8 1293.28 320.3 1293.81 322ZM1288.26 310.85V308.1L1286.91 308.4C1282.18 309.633 1279.19 310.717 1277.96 311.65C1276.69 312.65 1276.04 313.883 1276.01 315.35C1276.01 316.017 1276.21 316.683 1276.61 317.35C1276.91 317.883 1277.48 318.367 1278.31 318.8C1279.08 319.133 1279.81 319.3 1280.51 319.3C1281.78 319.3 1283.04 318.933 1284.31 318.2C1285.58 317.4 1286.56 316.4 1287.26 315.2C1287.93 313.933 1288.26 312.483 1288.26 310.85ZM1309.64 318.9C1310.64 318.9 1312.01 318.633 1313.74 318.1V321.95C1311.61 322.483 1309.91 322.75 1308.64 322.75C1306.97 322.75 1305.42 322.417 1303.99 321.75C1302.69 321.083 1301.66 320.067 1300.89 318.7C1300.16 317.433 1299.79 315.35 1299.79 312.45V298.25H1294.99V294.45H1299.79V287.95H1304.39V294.45H1312.44V298.25H1304.39V311.15C1304.39 313.65 1304.57 315.333 1304.94 316.2C1305.27 317.067 1305.87 317.75 1306.74 318.25C1307.51 318.683 1308.47 318.9 1309.64 318.9ZM1316.3 322V294.45H1320.9V322H1316.3ZM1320.9 288.3H1316.3V283.7H1320.9V288.3ZM1346.02 319.1C1343.49 321.533 1340.42 322.75 1336.82 322.75C1333.22 322.75 1330.15 321.533 1327.62 319.1C1325.12 316.7 1323.84 313.067 1323.77 308.2C1323.77 303.467 1325.05 299.85 1327.62 297.35C1330.19 294.917 1333.25 293.683 1336.82 293.65C1340.39 293.65 1343.45 294.883 1346.02 297.35C1348.55 299.817 1349.84 303.433 1349.87 308.2C1349.87 313 1348.59 316.633 1346.02 319.1ZM1330.87 316C1332.3 317.933 1334.29 318.9 1336.82 318.9C1339.29 318.9 1341.27 317.933 1342.77 316C1344.24 314.1 1345 311.5 1345.07 308.2C1345.07 305 1344.3 302.433 1342.77 300.5C1341.34 298.5 1339.35 297.5 1336.82 297.5C1334.35 297.5 1332.37 298.5 1330.87 300.5C1329.4 302.367 1328.64 304.933 1328.57 308.2C1328.57 311.367 1329.34 313.967 1330.87 316ZM1357.38 308.45V322H1352.78V294.45H1357.38V299.2C1358.35 297.733 1359.27 296.633 1360.13 295.9C1361 295.233 1361.97 294.683 1363.03 294.25C1363.87 293.917 1364.97 293.717 1366.33 293.65C1368.07 293.65 1369.62 294.017 1370.98 294.75C1372.35 295.417 1373.42 296.45 1374.18 297.85C1374.88 299.15 1375.27 301.35 1375.33 304.45V322H1370.73V306.45C1370.73 303.95 1370.57 302.2 1370.23 301.2C1369.93 300.167 1369.3 299.367 1368.33 298.8C1367.4 298.2 1366.35 297.9 1365.18 297.9C1363.95 297.9 1362.67 298.283 1361.33 299.05C1360.1 299.917 1359.13 301.033 1358.43 302.4C1357.73 303.8 1357.38 305.817 1357.38 308.45ZM1187.95 386.35V400H1183.35V372.45H1187.95V377.3C1188.62 375.967 1189.42 374.883 1190.35 374.05C1191.12 373.417 1192.09 372.833 1193.25 372.3C1194.22 371.933 1195.25 371.717 1196.35 371.65C1197.29 371.65 1198.1 371.8 1198.8 372.1V376.85C1197.8 376.383 1196.65 376.117 1195.35 376.05C1193.62 376.05 1191.94 376.817 1190.3 378.35C1188.74 379.85 1187.95 382.517 1187.95 386.35ZM1217.78 393.2V392.95H1222.38V393.2C1222.38 394.433 1221.9 395.65 1220.93 396.85C1220 398.117 1218.72 399.1 1217.08 399.8C1215.45 400.433 1213.62 400.75 1211.58 400.75C1207.42 400.75 1204.18 399.4 1201.88 396.7C1199.58 393.933 1198.43 390.5 1198.43 386.4C1198.43 382.267 1199.65 378.75 1202.08 375.85C1204.55 373.083 1207.65 371.683 1211.38 371.65C1213.45 371.65 1215.35 372.117 1217.08 373.05C1218.75 373.917 1220.08 375.317 1221.08 377.25C1222.05 379.15 1222.53 381.817 1222.53 385.25V386.8H1202.98C1202.98 389.667 1203.78 392.1 1205.38 394.1C1206.95 395.967 1209.15 396.9 1211.98 396.9C1214.05 396.9 1215.52 396.533 1216.38 395.8C1217.32 395 1217.78 394.133 1217.78 393.2ZM1206.18 377.6C1204.82 378.867 1203.85 380.783 1203.28 383.35H1218.18V382.85C1218.18 381.517 1217.87 380.267 1217.23 379.1C1216.6 377.8 1215.77 376.9 1214.73 376.4C1213.6 375.8 1212.33 375.5 1210.93 375.5C1209.23 375.5 1207.65 376.2 1206.18 377.6ZM1244.89 377.25V372.45H1249.44V410.7H1244.89V395.2C1243.79 396.967 1242.87 398.133 1242.14 398.7C1241.27 399.367 1240.29 399.867 1239.19 400.2C1238.02 400.567 1236.92 400.75 1235.89 400.75C1233.79 400.75 1231.87 400.183 1230.14 399.05C1228.44 397.983 1227.07 396.283 1226.04 393.95C1225.07 391.65 1224.57 389.1 1224.54 386.3C1224.54 382.167 1225.55 378.683 1227.59 375.85C1229.65 373.083 1232.49 371.683 1236.09 371.65C1237.19 371.65 1238.29 371.833 1239.39 372.2C1240.39 372.533 1241.32 373.033 1242.19 373.7C1242.85 374.267 1243.75 375.45 1244.89 377.25ZM1243.89 391.85C1244.52 390.083 1244.85 388.2 1244.89 386.2C1244.89 383.133 1244.2 380.583 1242.84 378.55C1241.54 376.583 1239.64 375.567 1237.14 375.5C1234.94 375.5 1233.09 376.4 1231.59 378.2C1230.09 380 1229.34 382.65 1229.34 386.15C1229.34 390.283 1230.14 393.15 1231.74 394.75C1233.24 396.317 1235 397.1 1237.04 397.1C1238.57 397.1 1239.94 396.667 1241.14 395.8C1242.4 394.833 1243.32 393.517 1243.89 391.85ZM1270.91 386V372.45H1275.51V400H1270.91V395.2C1270.01 396.667 1269.09 397.783 1268.16 398.55C1267.32 399.217 1266.37 399.767 1265.31 400.2C1264.31 400.567 1263.24 400.75 1262.11 400.75C1259.64 400.75 1257.47 400.05 1255.61 398.65C1253.84 397.15 1252.96 394.233 1252.96 389.9V372.45H1257.56V388C1257.56 392 1258.09 394.433 1259.16 395.3C1260.26 396.133 1261.59 396.55 1263.16 396.55C1264.49 396.55 1265.76 396.15 1266.96 395.35C1268.19 394.617 1269.16 393.5 1269.86 392C1270.56 390.533 1270.91 388.533 1270.91 386ZM1297.75 393.2V392.95H1302.35V393.2C1302.35 394.433 1301.87 395.65 1300.9 396.85C1299.97 398.117 1298.68 399.1 1297.05 399.8C1295.42 400.433 1293.58 400.75 1291.55 400.75C1287.38 400.75 1284.15 399.4 1281.85 396.7C1279.55 393.933 1278.4 390.5 1278.4 386.4C1278.4 382.267 1279.62 378.75 1282.05 375.85C1284.52 373.083 1287.62 371.683 1291.35 371.65C1293.42 371.65 1295.32 372.117 1297.05 373.05C1298.72 373.917 1300.05 375.317 1301.05 377.25C1302.02 379.15 1302.5 381.817 1302.5 385.25V386.8H1282.95C1282.95 389.667 1283.75 392.1 1285.35 394.1C1286.92 395.967 1289.12 396.9 1291.95 396.9C1294.02 396.9 1295.48 396.533 1296.35 395.8C1297.28 395 1297.75 394.133 1297.75 393.2ZM1286.15 377.6C1284.78 378.867 1283.82 380.783 1283.25 383.35H1298.15V382.85C1298.15 381.517 1297.83 380.267 1297.2 379.1C1296.57 377.8 1295.73 376.9 1294.7 376.4C1293.57 375.8 1292.3 375.5 1290.9 375.5C1289.2 375.5 1287.62 376.2 1286.15 377.6ZM1304.15 392.85V392.75H1308.75V392.85C1308.75 394.017 1309.22 395 1310.15 395.8C1310.98 396.533 1312.5 396.9 1314.7 396.9C1316.63 396.9 1318.15 396.45 1319.25 395.55C1320.48 394.65 1321.1 393.567 1321.1 392.3C1321.1 390.633 1319.93 389.433 1317.6 388.7L1315.3 388L1313.7 387.45L1310.55 386.5C1306.98 385.233 1305.17 383.033 1305.1 379.9C1305.1 377.7 1305.97 375.783 1307.7 374.15C1309.47 372.517 1312.1 371.683 1315.6 371.65C1319 371.65 1321.42 372.367 1322.85 373.8C1324.32 375.2 1325.05 376.767 1325.05 378.5V378.6H1320.45V378.5C1320.45 377.567 1319.97 376.833 1319 376.3C1318.13 375.833 1316.92 375.567 1315.35 375.5C1313.48 375.5 1312.07 375.883 1311.1 376.65C1310.1 377.45 1309.6 378.4 1309.6 379.5C1309.6 380.3 1309.93 380.983 1310.6 381.55C1311.2 382.083 1312.25 382.583 1313.75 383.05L1316 383.65L1317.6 384.1C1319.77 384.733 1321.15 385.183 1321.75 385.45C1322.38 385.75 1322.93 386.083 1323.4 386.45C1324.2 387.05 1324.78 387.767 1325.15 388.6C1325.52 389.5 1325.7 390.483 1325.7 391.55C1325.7 394.15 1324.77 396.333 1322.9 398.1C1321.1 399.867 1318.37 400.75 1314.7 400.75C1312.4 400.75 1310.52 400.417 1309.05 399.75C1307.62 399.117 1306.43 398.183 1305.5 396.95C1304.6 395.783 1304.15 394.417 1304.15 392.85ZM1341.28 396.9C1342.28 396.9 1343.65 396.633 1345.38 396.1V399.95C1343.25 400.483 1341.55 400.75 1340.28 400.75C1338.62 400.75 1337.07 400.417 1335.63 399.75C1334.33 399.083 1333.3 398.067 1332.53 396.7C1331.8 395.433 1331.43 393.35 1331.43 390.45V376.25H1326.63V372.45H1331.43V365.95H1336.03V372.45H1344.08V376.25H1336.03V389.15C1336.03 391.65 1336.22 393.333 1336.58 394.2C1336.92 395.067 1337.52 395.75 1338.38 396.25C1339.15 396.683 1340.12 396.9 1341.28 396.9ZM1211.06 437.45H1214.86C1212.1 440.317 1210.05 443.05 1208.71 445.65C1207.51 447.95 1206.55 450.617 1205.81 453.65C1205.18 456.517 1204.86 459.4 1204.86 462.3C1204.86 465.233 1205.18 468.133 1205.81 471C1206.48 473.967 1207.45 476.633 1208.71 479C1209.98 481.5 1212.03 484.233 1214.86 487.2H1211.06C1208.9 485.3 1206.91 482.933 1205.11 480.1C1203.28 477.167 1201.96 474.233 1201.16 471.3C1200.36 468.3 1199.96 465.3 1199.96 462.3C1199.96 459.367 1200.36 456.383 1201.16 453.35C1201.86 450.45 1203.18 447.5 1205.11 444.5C1206.88 441.667 1208.86 439.317 1211.06 437.45ZM1224.87 467.5L1220.52 478H1215.92L1231.62 439.7H1236.62L1251.12 478H1245.72L1241.77 467.5H1224.87ZM1233.62 445.9L1226.37 463.65H1240.32L1233.62 445.9ZM1251.59 469.6V469.4H1256.59V469.6C1256.59 471.767 1257.32 473.25 1258.79 474.05C1260.26 474.817 1262.24 475.233 1264.74 475.3C1266.97 475.3 1268.79 474.667 1270.19 473.4C1271.69 472.2 1272.44 470.533 1272.44 468.4C1272.44 466.7 1271.81 465.333 1270.54 464.3C1269.27 463.233 1267.34 462.183 1264.74 461.15L1262.79 460.3C1260.09 459.233 1258.06 458.133 1256.69 457C1255.36 455.967 1254.36 454.75 1253.69 453.35C1253.06 451.983 1252.74 450.5 1252.74 448.9C1252.74 445.967 1253.74 443.533 1255.74 441.6C1257.84 439.6 1261.06 438.6 1265.39 438.6C1269.42 438.6 1272.24 439.35 1273.84 440.85C1275.44 442.283 1276.24 444 1276.24 446V446.25H1271.24V446C1271.24 445.367 1270.99 444.75 1270.49 444.15C1270.02 443.583 1269.29 443.15 1268.29 442.85C1267.49 442.617 1266.37 442.467 1264.94 442.4C1262.54 442.4 1260.72 443.017 1259.49 444.25C1258.36 445.483 1257.79 446.883 1257.79 448.45C1257.79 449.483 1258.06 450.483 1258.59 451.45C1259.16 452.35 1259.92 453.1 1260.89 453.7C1261.79 454.233 1263.44 455.05 1265.84 456.15L1268.19 457.15C1271.99 458.783 1274.49 460.5 1275.69 462.3C1276.96 464 1277.59 465.933 1277.59 468.1C1277.59 470.1 1277.07 471.967 1276.04 473.7C1275.01 475.5 1273.61 476.867 1271.84 477.8C1270.11 478.633 1267.69 479.083 1264.59 479.15C1261.72 479.15 1259.34 478.8 1257.44 478.1C1255.54 477.467 1254.09 476.35 1253.09 474.75C1252.09 473.183 1251.59 471.467 1251.59 469.6ZM1295.25 478H1290.3V443.55H1277.25V439.7H1308.05V443.55H1295.25V478ZM1312.88 487.2H1309.08C1312.05 484.033 1314.11 481.3 1315.28 479C1316.41 476.767 1317.35 474.1 1318.08 471C1318.78 468.033 1319.13 465.133 1319.13 462.3C1319.13 459.3 1318.78 456.417 1318.08 453.65C1317.41 450.65 1316.48 447.983 1315.28 445.65C1313.98 443.117 1311.91 440.383 1309.08 437.45H1312.88C1314.88 439.117 1316.86 441.467 1318.83 444.5C1320.63 447.4 1321.95 450.35 1322.78 453.35C1323.55 456.117 1323.96 459.1 1324.03 462.3C1324.03 465.3 1323.61 468.3 1322.78 471.3C1321.95 474.367 1320.63 477.3 1318.83 480.1C1317.03 482.9 1315.05 485.267 1312.88 487.2Z"
          fill="black"/>
    <path d="M611.824 705.6V719H607.224V691.45H611.824V696.4C612.691 694.833 613.558 693.65 614.424 692.85C615.158 692.25 616.108 691.7 617.274 691.2C618.108 690.9 619.158 690.717 620.424 690.65C621.558 690.65 622.641 690.833 623.674 691.2C624.774 691.6 625.691 692.133 626.424 692.8C627.158 693.533 627.891 694.733 628.624 696.4C629.591 694.8 630.524 693.65 631.424 692.95C632.291 692.217 633.208 691.65 634.174 691.25C634.974 690.917 636.008 690.717 637.274 690.65C638.774 690.65 640.191 691.033 641.524 691.8C642.791 692.567 643.758 693.6 644.424 694.9C645.124 696.2 645.474 698.5 645.474 701.8V719H640.824V703.7C640.824 700.5 640.641 698.45 640.274 697.55C639.808 696.65 639.274 696 638.674 695.6C638.008 695.133 637.191 694.9 636.224 694.9C634.824 694.9 633.558 695.317 632.424 696.15C631.224 697.117 630.308 698.267 629.674 699.6C628.974 701 628.624 703 628.624 705.6V719H624.024V703.7C624.024 700.4 623.858 698.35 623.524 697.55C623.158 696.683 622.591 696.017 621.824 695.55C621.091 695.15 620.258 694.917 619.324 694.85C618.124 694.85 616.891 695.3 615.624 696.2C614.458 697.067 613.524 698.233 612.824 699.7C612.158 701.033 611.824 703 611.824 705.6ZM670.24 716.1C667.707 718.533 664.64 719.75 661.04 719.75C657.44 719.75 654.374 718.533 651.84 716.1C649.34 713.7 648.057 710.067 647.99 705.2C647.99 700.467 649.274 696.85 651.84 694.35C654.407 691.917 657.474 690.683 661.04 690.65C664.607 690.65 667.674 691.883 670.24 694.35C672.774 696.817 674.057 700.433 674.09 705.2C674.09 710 672.807 713.633 670.24 716.1ZM655.09 713C656.524 714.933 658.507 715.9 661.04 715.9C663.507 715.9 665.49 714.933 666.99 713C668.457 711.1 669.224 708.5 669.29 705.2C669.29 702 668.524 699.433 666.99 697.5C665.557 695.5 663.574 694.5 661.04 694.5C658.574 694.5 656.59 695.5 655.09 697.5C653.624 699.367 652.857 701.933 652.79 705.2C652.79 708.367 653.557 710.967 655.09 713ZM695.955 696.25V679.2H700.505V719H695.955V714.2C694.889 716.067 693.972 717.317 693.205 717.95C692.339 718.583 691.322 719.05 690.155 719.35C689.022 719.617 687.939 719.75 686.905 719.75C684.772 719.75 682.872 719.183 681.205 718.05C679.505 716.983 678.139 715.283 677.105 712.95C676.139 710.65 675.639 708.1 675.605 705.3C675.605 701.167 676.622 697.683 678.655 694.85C680.722 692.083 683.555 690.683 687.155 690.65C688.255 690.65 689.355 690.833 690.455 691.2C691.455 691.533 692.389 692.033 693.255 692.7C693.922 693.267 694.822 694.45 695.955 696.25ZM694.955 710.85C695.589 709.083 695.922 707.2 695.955 705.2C695.955 702.133 695.272 699.583 693.905 697.55C692.605 695.583 690.705 694.567 688.205 694.5C686.005 694.5 684.155 695.4 682.655 697.2C681.155 699 680.405 701.65 680.405 705.15C680.405 709.25 681.139 712.117 682.605 713.75C684.005 715.317 685.839 716.1 688.105 716.1C689.639 716.1 691.005 715.667 692.205 714.8C693.472 713.833 694.389 712.517 694.955 710.85ZM722.375 712.2V711.95H726.975V712.2C726.975 713.433 726.492 714.65 725.525 715.85C724.592 717.117 723.309 718.1 721.675 718.8C720.042 719.433 718.209 719.75 716.175 719.75C712.009 719.75 708.775 718.4 706.475 715.7C704.175 712.933 703.025 709.5 703.025 705.4C703.025 701.267 704.242 697.75 706.675 694.85C709.142 692.083 712.242 690.683 715.975 690.65C718.042 690.65 719.942 691.117 721.675 692.05C723.342 692.917 724.675 694.317 725.675 696.25C726.642 698.15 727.125 700.817 727.125 704.25V705.8H707.575C707.575 708.667 708.375 711.1 709.975 713.1C711.542 714.967 713.742 715.9 716.575 715.9C718.642 715.9 720.109 715.533 720.975 714.8C721.909 714 722.375 713.133 722.375 712.2ZM710.775 696.6C709.409 697.867 708.442 699.783 707.875 702.35H722.775V701.85C722.775 700.517 722.459 699.267 721.825 698.1C721.192 696.8 720.359 695.9 719.325 695.4C718.192 694.8 716.925 694.5 715.525 694.5C713.825 694.5 712.242 695.2 710.775 696.6ZM735.127 679.2V719H730.527V679.2H735.127ZM737.642 711.85V711.75H742.242V711.85C742.242 713.017 742.709 714 743.642 714.8C744.476 715.533 745.992 715.9 748.192 715.9C750.126 715.9 751.642 715.45 752.742 714.55C753.976 713.65 754.592 712.567 754.592 711.3C754.592 709.633 753.426 708.433 751.092 707.7L748.792 707L747.192 706.45L744.042 705.5C740.476 704.233 738.659 702.033 738.592 698.9C738.592 696.7 739.459 694.783 741.192 693.15C742.959 691.517 745.592 690.683 749.092 690.65C752.492 690.65 754.909 691.367 756.342 692.8C757.809 694.2 758.542 695.767 758.542 697.5V697.6H753.942V697.5C753.942 696.567 753.459 695.833 752.492 695.3C751.626 694.833 750.409 694.567 748.842 694.5C746.976 694.5 745.559 694.883 744.592 695.65C743.592 696.45 743.092 697.4 743.092 698.5C743.092 699.3 743.426 699.983 744.092 700.55C744.692 701.083 745.742 701.583 747.242 702.05L749.492 702.65L751.092 703.1C753.259 703.733 754.642 704.183 755.242 704.45C755.876 704.75 756.426 705.083 756.892 705.45C757.692 706.05 758.276 706.767 758.642 707.6C759.009 708.5 759.192 709.483 759.192 710.55C759.192 713.15 758.259 715.333 756.392 717.1C754.592 718.867 751.859 719.75 748.192 719.75C745.892 719.75 744.009 719.417 742.542 718.75C741.109 718.117 739.926 717.183 738.992 715.95C738.092 714.783 737.642 713.417 737.642 711.85Z"
          fill="black"/>
    <path d="M455.012 563.2V562.95H459.612V563.2C459.612 564.467 459.145 565.683 458.212 566.85C457.379 568.083 456.162 569.067 454.562 569.8C453.029 570.433 451.212 570.75 449.112 570.75C445.079 570.75 441.945 569.467 439.712 566.9C437.545 564.333 436.445 560.767 436.412 556.2C436.412 551.767 437.512 548.217 439.712 545.55C441.979 542.983 445.112 541.683 449.112 541.65C451.245 541.65 453.062 542 454.562 542.7C456.129 543.367 457.345 544.283 458.212 545.45C459.145 546.517 459.612 547.8 459.612 549.3V549.55H455.012V549.3C455.079 548.3 454.629 547.417 453.662 546.65C452.795 545.95 451.362 545.567 449.362 545.5C447.095 545.5 445.179 546.35 443.612 548.05C442.045 549.75 441.245 552.467 441.212 556.2C441.212 559.967 442.012 562.7 443.612 564.4C445.112 566.067 447.029 566.9 449.362 566.9C451.295 566.9 452.729 566.533 453.662 565.8C454.529 565.033 454.979 564.167 455.012 563.2ZM483.201 567.1C480.668 569.533 477.601 570.75 474.001 570.75C470.401 570.75 467.335 569.533 464.801 567.1C462.301 564.7 461.018 561.067 460.951 556.2C460.951 551.467 462.235 547.85 464.801 545.35C467.368 542.917 470.435 541.683 474.001 541.65C477.568 541.65 480.635 542.883 483.201 545.35C485.735 547.817 487.018 551.433 487.051 556.2C487.051 561 485.768 564.633 483.201 567.1ZM468.051 564C469.485 565.933 471.468 566.9 474.001 566.9C476.468 566.9 478.451 565.933 479.951 564C481.418 562.1 482.185 559.5 482.251 556.2C482.251 553 481.485 550.433 479.951 548.5C478.518 546.5 476.535 545.5 474.001 545.5C471.535 545.5 469.551 546.5 468.051 548.5C466.585 550.367 465.818 552.933 465.751 556.2C465.751 559.367 466.518 561.967 468.051 564ZM508.916 547.25V530.2H513.466V570H508.916V565.2C507.85 567.067 506.933 568.317 506.166 568.95C505.3 569.583 504.283 570.05 503.116 570.35C501.983 570.617 500.9 570.75 499.866 570.75C497.733 570.75 495.833 570.183 494.166 569.05C492.466 567.983 491.1 566.283 490.066 563.95C489.1 561.65 488.6 559.1 488.566 556.3C488.566 552.167 489.583 548.683 491.616 545.85C493.683 543.083 496.516 541.683 500.116 541.65C501.216 541.65 502.316 541.833 503.416 542.2C504.416 542.533 505.35 543.033 506.216 543.7C506.883 544.267 507.783 545.45 508.916 547.25ZM507.916 561.85C508.55 560.083 508.883 558.2 508.916 556.2C508.916 553.133 508.233 550.583 506.866 548.55C505.566 546.583 503.666 545.567 501.166 545.5C498.966 545.5 497.116 546.4 495.616 548.2C494.116 550 493.366 552.65 493.366 556.15C493.366 560.25 494.1 563.117 495.566 564.75C496.966 566.317 498.8 567.1 501.066 567.1C502.6 567.1 503.966 566.667 505.166 565.8C506.433 564.833 507.35 563.517 507.916 561.85ZM535.336 563.2V562.95H539.936V563.2C539.936 564.433 539.453 565.65 538.486 566.85C537.553 568.117 536.27 569.1 534.636 569.8C533.003 570.433 531.17 570.75 529.136 570.75C524.97 570.75 521.736 569.4 519.436 566.7C517.136 563.933 515.986 560.5 515.986 556.4C515.986 552.267 517.203 548.75 519.636 545.85C522.103 543.083 525.203 541.683 528.936 541.65C531.003 541.65 532.903 542.117 534.636 543.05C536.303 543.917 537.636 545.317 538.636 547.25C539.603 549.15 540.086 551.817 540.086 555.25V556.8H520.536C520.536 559.667 521.336 562.1 522.936 564.1C524.503 565.967 526.703 566.9 529.536 566.9C531.603 566.9 533.07 566.533 533.936 565.8C534.87 565 535.336 564.133 535.336 563.2ZM523.736 547.6C522.37 548.867 521.403 550.783 520.836 553.35H535.736V552.85C535.736 551.517 535.42 550.267 534.786 549.1C534.153 547.8 533.32 546.9 532.286 546.4C531.153 545.8 529.886 545.5 528.486 545.5C526.786 545.5 525.203 546.2 523.736 547.6Z"
          fill="black"/>
    <path d="M836.509 348V320.45H841.109V348C841.109 350.833 840.776 352.9 840.109 354.2C839.509 355.5 838.442 356.6 836.909 357.5C835.509 358.233 833.892 358.633 832.059 358.7C830.992 358.7 829.659 358.567 828.059 358.3V354.6L829.109 354.7C829.942 354.8 830.659 354.85 831.259 354.85C832.759 354.85 834.026 354.467 835.059 353.7C836.026 352.933 836.509 351.033 836.509 348ZM841.109 314.15H836.509V309.7H841.109V314.15ZM867.374 348H862.524C862.124 346.667 861.89 345.383 861.824 344.15C859.857 346.117 858.14 347.4 856.674 348C855.274 348.5 853.907 348.75 852.574 348.75C850.407 348.75 848.54 348.1 846.974 346.8C845.44 345.433 844.657 343.583 844.624 341.25C844.624 338.55 845.724 336.483 847.924 335.05C850.09 333.65 853.89 332.4 859.324 331.3L861.824 330.85V327.75C861.824 326.05 861.257 324.85 860.124 324.15C858.957 323.483 857.59 323.15 856.024 323.15C854.09 323.15 852.607 323.567 851.574 324.4C850.574 325.167 850.04 326.15 849.974 327.35V327.75H845.024V327.35C845.024 326.05 845.524 324.8 846.524 323.6C847.49 322.333 848.857 321.35 850.624 320.65C852.357 319.983 854.224 319.65 856.224 319.65C858.29 319.65 860.107 319.983 861.674 320.65C863.374 321.283 864.574 322.117 865.274 323.15C865.974 324.117 866.357 326.1 866.424 329.1V339.8C866.424 341.4 866.44 342.633 866.474 343.5C866.54 344.8 866.84 346.3 867.374 348ZM861.824 336.85V334.1L860.474 334.4C855.74 335.633 852.757 336.717 851.524 337.65C850.257 338.65 849.607 339.883 849.574 341.35C849.574 342.017 849.774 342.683 850.174 343.35C850.474 343.883 851.04 344.367 851.874 344.8C852.64 345.133 853.374 345.3 854.074 345.3C855.34 345.3 856.607 344.933 857.874 344.2C859.14 343.4 860.124 342.4 860.824 341.2C861.49 339.933 861.824 338.483 861.824 336.85ZM883.204 348H878.604L867.404 320.45H872.354L881.204 342.05L890.204 320.45H894.804L883.204 348ZM917.819 348H912.969C912.569 346.667 912.336 345.383 912.269 344.15C910.302 346.117 908.586 347.4 907.119 348C905.719 348.5 904.352 348.75 903.019 348.75C900.852 348.75 898.986 348.1 897.419 346.8C895.886 345.433 895.102 343.583 895.069 341.25C895.069 338.55 896.169 336.483 898.369 335.05C900.536 333.65 904.336 332.4 909.769 331.3L912.269 330.85V327.75C912.269 326.05 911.702 324.85 910.569 324.15C909.402 323.483 908.036 323.15 906.469 323.15C904.536 323.15 903.052 323.567 902.019 324.4C901.019 325.167 900.486 326.15 900.419 327.35V327.75H895.469V327.35C895.469 326.05 895.969 324.8 896.969 323.6C897.936 322.333 899.302 321.35 901.069 320.65C902.802 319.983 904.669 319.65 906.669 319.65C908.736 319.65 910.552 319.983 912.119 320.65C913.819 321.283 915.019 322.117 915.719 323.15C916.419 324.117 916.802 326.1 916.869 329.1V339.8C916.869 341.4 916.886 342.633 916.919 343.5C916.986 344.8 917.286 346.3 917.819 348ZM912.269 336.85V334.1L910.919 334.4C906.186 335.633 903.202 336.717 901.969 337.65C900.702 338.65 900.052 339.883 900.019 341.35C900.019 342.017 900.219 342.683 900.619 343.35C900.919 343.883 901.486 344.367 902.319 344.8C903.086 345.133 903.819 345.3 904.519 345.3C905.786 345.3 907.052 344.933 908.319 344.2C909.586 343.4 910.569 342.4 911.269 341.2C911.936 339.933 912.269 338.483 912.269 336.85ZM892.346 402.25V426H887.746V402.25H883.746V398.45H887.746V397.15C887.746 393.15 888.596 390.333 890.296 388.7C891.962 387.033 894.162 386.2 896.896 386.2C898.029 386.2 899.312 386.317 900.746 386.55V390.3C900.079 390.233 899.046 390.15 897.646 390.05C896.179 390.05 894.929 390.417 893.896 391.15C892.862 391.85 892.346 393.567 892.346 396.3V398.45H900.396V402.25H892.346ZM901.973 426V398.45H906.573V426H901.973ZM906.573 392.3H901.973V387.7H906.573V392.3ZM915.438 386.2V426H910.838V386.2H915.438ZM937.654 419.2V418.95H942.254V419.2C942.254 420.433 941.77 421.65 940.804 422.85C939.87 424.117 938.587 425.1 936.954 425.8C935.32 426.433 933.487 426.75 931.454 426.75C927.287 426.75 924.054 425.4 921.754 422.7C919.454 419.933 918.304 416.5 918.304 412.4C918.304 408.267 919.52 404.75 921.954 401.85C924.42 399.083 927.52 397.683 931.254 397.65C933.32 397.65 935.22 398.117 936.954 399.05C938.62 399.917 939.954 401.317 940.954 403.25C941.92 405.15 942.404 407.817 942.404 411.25V412.8H922.854C922.854 415.667 923.654 418.1 925.254 420.1C926.82 421.967 929.02 422.9 931.854 422.9C933.92 422.9 935.387 422.533 936.254 421.8C937.187 421 937.654 420.133 937.654 419.2ZM926.054 403.6C924.687 404.867 923.72 406.783 923.154 409.35H938.054V408.85C938.054 407.517 937.737 406.267 937.104 405.1C936.47 403.8 935.637 402.9 934.604 402.4C933.47 401.8 932.204 401.5 930.804 401.5C929.104 401.5 927.52 402.2 926.054 403.6ZM944.055 418.85V418.75H948.655V418.85C948.655 420.017 949.122 421 950.055 421.8C950.889 422.533 952.405 422.9 954.605 422.9C956.539 422.9 958.055 422.45 959.155 421.55C960.389 420.65 961.005 419.567 961.005 418.3C961.005 416.633 959.839 415.433 957.505 414.7L955.205 414L953.605 413.45L950.455 412.5C946.889 411.233 945.072 409.033 945.005 405.9C945.005 403.7 945.872 401.783 947.605 400.15C949.372 398.517 952.005 397.683 955.505 397.65C958.905 397.65 961.322 398.367 962.755 399.8C964.222 401.2 964.955 402.767 964.955 404.5V404.6H960.355V404.5C960.355 403.567 959.872 402.833 958.905 402.3C958.039 401.833 956.822 401.567 955.255 401.5C953.389 401.5 951.972 401.883 951.005 402.65C950.005 403.45 949.505 404.4 949.505 405.5C949.505 406.3 949.839 406.983 950.505 407.55C951.105 408.083 952.155 408.583 953.655 409.05L955.905 409.65L957.505 410.1C959.672 410.733 961.055 411.183 961.655 411.45C962.289 411.75 962.839 412.083 963.305 412.45C964.105 413.05 964.689 413.767 965.055 414.6C965.422 415.5 965.605 416.483 965.605 417.55C965.605 420.15 964.672 422.333 962.805 424.1C961.005 425.867 958.272 426.75 954.605 426.75C952.305 426.75 950.422 426.417 948.955 425.75C947.522 425.117 946.339 424.183 945.405 422.95C944.505 421.783 944.055 420.417 944.055 418.85Z"
          fill="black"/>
    <path d="M430.248 654.216C429.263 655.184 429.249 656.767 430.216 657.752L445.982 673.804C446.95 674.789 448.533 674.804 449.518 673.836C450.503 672.869 450.517 671.286 449.55 670.301L435.535 656.032L449.804 642.018C450.789 641.05 450.804 639.467 449.836 638.482C448.869 637.497 447.286 637.483 446.301 638.45L430.248 654.216ZM765.023 656.5L432.023 653.5L431.977 658.5L764.977 661.5L765.023 656.5Z"
          fill="black"/>
    <path d="M766.768 590.768C767.744 589.791 767.744 588.209 766.768 587.232L750.858 571.322C749.882 570.346 748.299 570.346 747.322 571.322C746.346 572.299 746.346 573.882 747.322 574.858L761.464 589L747.322 603.142C746.346 604.118 746.346 605.701 747.322 606.678C748.299 607.654 749.882 607.654 750.858 606.678L766.768 590.768ZM432 591.5H765V586.5H432V591.5Z"
          fill="black"/>
    <path d="M1134.45 517H1129.85V483.45L1122.1 486.55V482.3L1129.85 478.7H1134.45V517Z" fill="black"/>
    <path d="M472.754 727H448.054V723C448.054 720.967 448.688 718.733 449.954 716.3C451.221 713.867 453.388 711.467 456.454 709.1L459.004 707.1C462.438 704.433 464.638 702.45 465.604 701.15C466.471 699.95 466.938 698.567 467.004 697C467.004 695.533 466.371 694.233 465.104 693.1C463.871 691.967 462.104 691.4 459.804 691.4C457.738 691.4 456.171 691.817 455.104 692.65C454.104 693.383 453.604 694.3 453.604 695.4V695.65H449.004V695.4C449.004 694.067 449.454 692.783 450.354 691.55C451.388 690.317 452.621 689.35 454.054 688.65C455.621 687.95 457.588 687.6 459.954 687.6C464.288 687.6 467.371 688.517 469.204 690.35C471.038 692.217 471.971 694.417 472.004 696.95C472.004 698.317 471.688 699.683 471.054 701.05C470.521 702.383 469.404 703.833 467.704 705.4C465.904 706.933 464.521 708.05 463.554 708.75L461.654 710.05C455.788 714.017 452.854 717.95 452.854 721.85V722.8H472.754V727Z"
          fill="black"/>
    <path d="M721.704 537.85H719.404V534H722.304C724.604 534 726.354 533.65 727.554 532.95C728.754 532.317 729.754 531.45 730.554 530.35C731.288 529.183 731.654 527.983 731.654 526.75C731.654 525.083 731.038 523.783 729.804 522.85C728.638 521.95 727.038 521.467 725.004 521.4C723.904 521.4 722.821 521.55 721.754 521.85C720.788 522.15 720.021 522.65 719.454 523.35C718.988 524.017 718.721 524.767 718.654 525.6V525.85H714.254V525.6C714.254 523.567 715.104 521.733 716.804 520.1C718.471 518.433 721.288 517.6 725.254 517.6C729.021 517.6 731.821 518.4 733.654 520C735.521 521.567 736.454 523.617 736.454 526.15C736.454 527.417 736.188 528.717 735.654 530.05C735.121 531.183 734.321 532.233 733.254 533.2C732.121 534.167 730.588 534.933 728.654 535.5C731.788 536.367 734.121 537.667 735.654 539.4C737.188 541.167 737.971 543.367 738.004 546C738.004 548.967 736.904 551.75 734.704 554.35C732.604 556.883 729.338 558.15 724.904 558.15C721.104 558.15 718.304 557.35 716.504 555.75C714.771 554.083 713.888 552.233 713.854 550.2V549.95H718.454V550.2C718.454 551.567 719.088 552.583 720.354 553.25C721.654 553.95 723.321 554.3 725.354 554.3C726.921 554.3 728.321 554.017 729.554 553.45C730.688 552.85 731.604 551.9 732.304 550.6C732.904 549.233 733.204 547.8 733.204 546.3C733.204 543.9 732.254 541.9 730.354 540.3C728.521 538.667 725.638 537.85 721.704 537.85Z"
          fill="black"/>
    <path d="M700.304 335.35V347H695.704V335.35H677.354V331.5L695.704 308.7H700.304V331.5H705.654V335.35H700.304ZM682.404 331.5H695.704V314.8L682.404 331.5Z"
          fill="black"/>
</svg>
